<?xml version="1.0" standalone="no"?>
<!DOCTYPE svg PUBLIC "-//W3C//DTD SVG 20010904//EN"
 "http://www.w3.org/TR/2001/REC-SVG-20010904/DTD/svg10.dtd">
<svg version="1.0" xmlns="http://www.w3.org/2000/svg"
 width="24.000000pt" height="24.000000pt" viewBox="0 0 24.000000 24.000000"
 preserveAspectRatio="xMidYMid meet">

<g transform="translate(0.000000,24.000000) scale(0.100000,-0.100000)"
fill="#000000" stroke="none">
<path d="M110 225 c0 -8 -9 -15 -20 -15 -21 0 -27 -15 -10 -25 6 -3 10 -14 10
-23 0 -12 8 -17 30 -17 22 0 30 5 30 17 0 9 5 20 10 23 17 10 11 25 -10 25
-11 0 -20 7 -20 15 0 8 -4 15 -10 15 -5 0 -10 -7 -10 -15z"/>
<path d="M30 190 c0 -5 -7 -10 -16 -10 -11 0 -14 -5 -10 -16 3 -9 6 -20 6 -25
0 -5 11 -9 25 -9 14 0 25 4 25 9 0 5 2 15 5 23 3 7 -4 19 -15 26 -12 7 -20 8
-20 2z"/>
<path d="M187 185 c-23 -17 -11 -55 18 -55 29 0 39 33 15 52 -13 12 -20 13
-33 3z"/>
<path d="M94 107 c-3 -8 -4 -34 -2 -58 3 -39 6 -44 28 -44 24 0 25 3 25 55 0
49 -2 55 -23 58 -12 2 -24 -3 -28 -11z"/>
<path d="M4 77 c-3 -9 -4 -28 -2 -44 3 -24 7 -28 33 -28 28 0 30 2 30 40 0 36
-3 40 -28 43 -17 2 -29 -2 -33 -11z"/>
<path d="M174 77 c-3 -9 -4 -28 -2 -44 3 -24 7 -28 33 -28 28 0 30 2 30 40 0
36 -3 40 -28 43 -17 2 -29 -2 -33 -11z"/>
</g>
</svg>
