<?xml version="1.0" standalone="no"?>
<!DOCTYPE svg PUBLIC "-//W3C//DTD SVG 20010904//EN"
 "http://www.w3.org/TR/2001/REC-SVG-20010904/DTD/svg10.dtd">
<svg version="1.0" xmlns="http://www.w3.org/2000/svg"
 width="24.000000pt" height="24.000000pt" viewBox="0 0 24.000000 24.000000"
 preserveAspectRatio="xMidYMid meet">

<g transform="translate(0.000000,24.000000) scale(0.100000,-0.100000)"
fill="#000000" stroke="none">
<path d="M35 219 c6 -18 4 -20 -14 -14 -16 5 -21 2 -21 -13 0 -22 30 -52 51
-52 20 0 89 -71 89 -91 0 -20 32 -49 54 -49 13 0 16 5 11 21 -6 18 -4 20 14
14 16 -5 21 -2 21 13 0 22 -30 52 -51 52 -20 0 -89 71 -89 91 0 20 -32 49 -54
49 -13 0 -16 -5 -11 -21z"/>
<path d="M195 230 c-10 -17 22 -47 35 -34 7 7 4 16 -9 28 -14 12 -21 14 -26 6z"/>
<path d="M146 182 c-15 -18 -15 -20 2 -35 18 -16 20 -16 37 3 19 21 14 50 -8
50 -8 0 -21 -8 -31 -18z"/>
<path d="M52 87 c-22 -23 -22 -24 -4 -40 17 -16 20 -16 40 6 22 23 22 24 4 40
-17 16 -20 16 -40 -6z"/>
<path d="M11 31 c-19 -34 -9 -42 23 -18 16 12 16 14 3 26 -13 10 -17 9 -26 -8z"/>
</g>
</svg>
