<?xml version="1.0" standalone="no"?>
<!DOCTYPE svg PUBLIC "-//W3C//DTD SVG 20010904//EN"
 "http://www.w3.org/TR/2001/REC-SVG-20010904/DTD/svg10.dtd">
<svg version="1.0" xmlns="http://www.w3.org/2000/svg"
 width="24.000000pt" height="24.000000pt" viewBox="0 0 24.000000 24.000000"
 preserveAspectRatio="xMidYMid meet">

<g transform="translate(0.000000,24.000000) scale(0.100000,-0.100000)"
fill="#000000" stroke="none">
<path d="M22 218 c-16 -16 -16 -180 0 -196 14 -14 98 -16 98 -2 0 6 -20 10
-45 10 l-45 0 0 90 0 90 44 0 c39 0 45 -3 48 -22 2 -15 11 -24 26 -26 12 -2
22 -10 22 -18 0 -8 5 -14 10 -14 21 0 9 43 -19 71 -25 24 -38 29 -78 29 -27 0
-54 -5 -61 -12z"/>
<path d="M73 133 c15 -2 39 -2 55 0 15 2 2 4 -28 4 -30 0 -43 -2 -27 -4z"/>
<path d="M60 100 c0 -5 11 -10 25 -10 14 0 25 5 25 10 0 6 -11 10 -25 10 -14
0 -25 -4 -25 -10z"/>
<path d="M150 100 c-25 -15 -22 -57 6 -75 22 -14 26 -14 48 0 16 11 22 23 20
42 -4 39 -40 55 -74 33z m60 -39 c0 -21 -22 -33 -45 -25 -18 7 -20 35 -3 52
15 15 48 -3 48 -27z"/>
<path d="M167 74 c-8 -8 1 -24 14 -24 5 0 9 7 9 15 0 15 -12 20 -23 9z"/>
<path d="M63 63 c9 -2 25 -2 35 0 9 3 1 5 -18 5 -19 0 -27 -2 -17 -5z"/>
</g>
</svg>
