<?xml version="1.0" standalone="no"?>
<!DOCTYPE svg PUBLIC "-//W3C//DTD SVG 20010904//EN"
 "http://www.w3.org/TR/2001/REC-SVG-20010904/DTD/svg10.dtd">
<svg version="1.0" xmlns="http://www.w3.org/2000/svg"
 width="128.000000pt" height="128.000000pt" viewBox="0 0 128.000000 128.000000"
 preserveAspectRatio="xMidYMid meet">

<g transform="translate(0.000000,128.000000) scale(0.100000,-0.100000)"
fill="#ffffff" stroke="none">
<path d="M500 1264 c-177 -38 -348 -171 -429 -334 -126 -256 -80 -542 118
-741 253 -252 650 -252 903 1 84 85 101 119 73 150 -25 27 -51 25 -78 -7 -65
-78 -94 -105 -145 -140 -214 -141 -496 -116 -677 62 -76 75 -119 150 -145 251
-25 98 -25 170 0 268 26 101 69 177 145 251 227 224 614 197 803 -56 40 -54
61 -65 92 -49 72 38 -63 205 -235 291 -133 66 -281 84 -425 53z"/>
<path d="M615 861 c-22 -10 -48 -32 -57 -49 -20 -34 -24 -103 -7 -133 8 -16 5
-30 -11 -65 -17 -34 -20 -53 -15 -86 10 -59 65 -113 123 -123 118 -20 215 119
154 220 -17 27 -17 33 -4 67 27 68 -6 146 -74 174 -43 18 -61 17 -109 -5z m83
-93 c17 -17 15 -43 -4 -59 -31 -26 -70 25 -44 56 15 18 32 19 48 3z m10 -180
c27 -27 3 -88 -34 -88 -18 0 -54 36 -54 54 0 37 61 61 88 34z"/>
<path d="M292 829 c-61 -47 -69 -61 -53 -96 10 -21 17 -25 46 -21 l35 4 0
-138 c0 -125 2 -140 20 -158 24 -24 43 -25 64 -4 14 13 16 48 16 223 0 148 -3
210 -12 219 -22 22 -62 11 -116 -29z"/>
<path d="M1070 785 c-7 -8 -15 -35 -18 -60 l-5 -45 -43 0 c-46 0 -74 -19 -74
-50 0 -31 28 -50 74 -50 l43 0 5 -45 c6 -53 22 -75 53 -75 31 0 47 22 53 75
l5 45 43 0 c46 0 74 19 74 50 0 31 -28 50 -74 50 l-43 0 -5 45 c-3 25 -11 52
-18 60 -16 19 -54 19 -70 0z"/>
</g>
</svg>
