<?xml version="1.0" standalone="no"?>
<!DOCTYPE svg PUBLIC "-//W3C//DTD SVG 20010904//EN"
 "http://www.w3.org/TR/2001/REC-SVG-20010904/DTD/svg10.dtd">
<svg version="1.0" xmlns="http://www.w3.org/2000/svg"
 width="128.000000pt" height="128.000000pt" viewBox="0 0 128.000000 128.000000"
 preserveAspectRatio="xMidYMid meet">

<g transform="translate(0.000000,128.000000) scale(0.100000,-0.100000)"
fill="#ffffff" stroke="none">
<path d="M65 1271 c-11 -5 -29 -19 -40 -31 -20 -22 -20 -36 -20 -601 l0 -579
28 -27 27 -28 410 0 410 0 27 28 28 27 0 580 0 580 -28 27 -27 28 -398 2
c-218 1 -406 -2 -417 -6z m510 -245 c103 -48 159 -134 159 -246 -1 -148 -115
-262 -264 -262 -149 0 -264 113 -264 261 -1 151 117 271 264 271 37 0 72 -8
105 -24z m-284 -644 c51 -42 17 -122 -52 -122 -34 0 -38 -3 -41 -27 -2 -17 -9
-28 -18 -28 -12 0 -16 17 -18 84 -2 46 -1 90 2 98 8 21 99 17 127 -5z m146
-62 c28 -64 40 -79 53 -75 10 3 29 1 44 -4 14 -6 33 -8 41 -5 28 11 15 33 -29
53 -47 20 -64 48 -47 80 14 25 44 35 87 26 53 -9 45 -35 -11 -35 -58 0 -59
-19 -2 -45 23 -11 46 -29 51 -41 16 -36 116 -53 116 -19 0 7 -21 23 -47 36
-37 19 -49 30 -51 51 -5 45 60 74 109 48 32 -18 21 -30 -25 -30 -62 0 -66 -17
-11 -41 62 -28 78 -73 37 -106 -22 -18 -73 -16 -100 3 -20 14 -24 14 -44 0
-29 -20 -77 -20 -106 0 -20 14 -22 14 -22 0 0 -25 -26 -19 -38 9 -10 21 -18
25 -55 25 -37 0 -46 -4 -55 -25 -12 -25 -26 -32 -36 -16 -9 13 76 191 91 191
8 0 30 -36 50 -80z"/>
<path d="M444 992 c-6 -4 -16 -17 -23 -29 -12 -23 -11 -23 49 -23 64 0 66 3
32 43 -16 18 -39 22 -58 9z"/>
<path d="M339 960 l-24 -19 22 -1 c12 0 27 9 33 20 14 26 -1 26 -31 0z"/>
<path d="M570 960 c6 -11 21 -20 33 -20 l22 1 -24 19 c-30 26 -45 26 -31 0z"/>
<path d="M261 859 c-19 -54 -15 -60 32 -57 42 3 42 3 45 46 3 42 3 42 -31 42
-30 0 -37 -4 -46 -31z"/>
<path d="M387 853 c-4 -20 -4 -40 -1 -45 6 -10 161 -11 167 0 2 4 2 24 0 45
l-5 37 -78 0 -77 0 -6 -37z"/>
<path d="M599 848 c6 -42 7 -43 49 -46 46 -3 50 3 31 57 -10 27 -15 31 -48 31
l-37 0 5 -42z"/>
<path d="M250 745 c0 -9 7 -29 15 -45 12 -23 22 -30 45 -30 29 0 30 2 30 45
l0 45 -45 0 c-34 0 -45 -4 -45 -15z"/>
<path d="M384 738 c3 -13 6 -33 6 -45 0 -22 4 -23 74 -23 41 0 77 3 79 8 2 4
7 24 11 45 l7 37 -92 0 c-90 0 -91 0 -85 -22z"/>
<path d="M600 715 c0 -44 1 -45 31 -45 25 0 32 6 45 35 21 51 18 55 -31 55
l-45 0 0 -45z"/>
<path d="M325 614 c11 -9 28 -20 37 -25 16 -9 17 -7 6 16 -8 17 -19 25 -37 25
-25 -1 -26 -1 -6 -16z"/>
<path d="M410 621 c0 -18 42 -61 60 -61 18 0 60 43 60 61 0 5 -27 9 -60 9 -33
0 -60 -4 -60 -9z"/>
<path d="M572 605 c-11 -23 -10 -25 6 -16 9 5 26 16 37 25 20 15 19 15 -6 16
-18 0 -29 -8 -37 -25z"/>
<path d="M200 330 c0 -37 2 -40 28 -40 53 0 73 53 26 70 -46 18 -54 13 -54
-30z"/>
<path d="M372 316 c-11 -24 -10 -26 13 -26 28 0 31 8 12 34 -12 17 -14 16 -25
-8z"/>
<path d="M970 594 c0 -483 1 -504 18 -504 11 0 26 8 36 18 9 11 71 207 138
437 112 387 120 421 107 444 -15 26 -49 39 -226 89 l-73 20 0 -504z"/>
</g>
</svg>
