<?xml version="1.0" encoding="UTF-8"?>
<!DOCTYPE svg PUBLIC "-//W3C//DTD SVG 1.1//EN" "http://www.w3.org/Graphics/SVG/1.1/DTD/svg11.dtd">
<svg xmlns="http://www.w3.org/2000/svg" version="1.1" width="128px" height="128px" style="shape-rendering:geometricPrecision; text-rendering:geometricPrecision; image-rendering:optimizeQuality; fill-rule:evenodd; clip-rule:evenodd" xmlns:xlink="http://www.w3.org/1999/xlink">
<g><path style="opacity:0.868" fill="#ffffff" d="M 127.5,33.5 C 127.5,37.8333 127.5,42.1667 127.5,46.5C 125.605,49.5567 122.938,51.7233 119.5,53C 111.193,51.6688 102.86,51.0021 94.5,51C 89.0056,45.8725 88.1722,40.0392 92,33.5C 96.959,29.0038 102.459,28.3372 108.5,31.5C 111.722,35.3988 113.388,39.8988 113.5,45C 117.256,45.5854 119.256,43.9187 119.5,40C 115.788,25.3133 106.788,20.3133 92.5,25C 82.7519,32.4323 80.9186,41.599 87,52.5C 94.4927,59.9637 102.993,61.297 112.5,56.5C 115.5,56.1667 116.833,57.5 116.5,60.5C 116.43,61.7716 116.097,62.9383 115.5,64C 97.5383,71.794 84.3717,66.9607 76,49.5C 72.0552,32.5554 78.2218,21.0554 94.5,15C 110.633,12.3919 121.633,18.5586 127.5,33.5 Z M 100.5,37.5 C 105.289,39.1998 105.622,41.5332 101.5,44.5C 97.9897,42.5733 97.6564,40.24 100.5,37.5 Z"/></g>
<g><path style="opacity:0.942" fill="#ffffff" d="M 2.5,30.5 C 24.6604,29.5026 46.9938,29.1692 69.5,29.5C 66.0341,42.3874 68.7008,53.8874 77.5,64C 73.0122,67.7433 68.3456,71.2433 63.5,74.5C 43.1484,59.8085 22.8151,45.1418 2.5,30.5 Z"/></g>
<g><path style="opacity:0.977" fill="#ffffff" d="M -0.5,35.5 C 20.561,51.2301 41.8943,66.5634 63.5,81.5C 70.0833,77.5923 76.4166,73.2589 82.5,68.5C 96.5101,77.1357 109.677,76.1357 122,65.5C 122.822,63.2115 123.489,60.8782 124,58.5C 124.816,57.1772 125.983,56.5106 127.5,56.5C 127.5,74.8333 127.5,93.1667 127.5,111.5C 84.8333,112.833 42.1667,112.833 -0.5,111.5C -0.5,86.1667 -0.5,60.8333 -0.5,35.5 Z"/></g>
</svg>
