<?xml version="1.0" standalone="no"?>
<!DOCTYPE svg PUBLIC "-//W3C//DTD SVG 20010904//EN"
 "http://www.w3.org/TR/2001/REC-SVG-20010904/DTD/svg10.dtd">
<svg version="1.0" xmlns="http://www.w3.org/2000/svg"
 width="128.000000pt" height="128.000000pt" viewBox="0 0 128.000000 128.000000"
 preserveAspectRatio="xMidYMid meet">

<g transform="translate(0.000000,128.000000) scale(0.100000,-0.100000)"
fill="#ffffff" stroke="none">
<path d="M127 1055 c-50 -17 -85 -50 -108 -100 -17 -36 -19 -69 -19 -315 0
-245 2 -279 19 -315 22 -50 69 -91 119 -105 50 -14 954 -14 1004 0 50 14 97
55 119 105 17 36 19 70 19 315 0 245 -2 279 -19 315 -22 50 -69 91 -119 105
-60 16 -967 13 -1015 -5z m241 -387 c1 -71 6 -128 11 -128 4 0 30 57 57 128
40 104 53 127 69 127 34 0 28 -34 -29 -175 l-54 -135 -49 0 -48 0 -3 133 -3
132 -49 0 c-52 0 -64 8 -54 35 5 13 19 15 78 13 l71 -3 3 -127z m268 118 c8
-22 -46 -279 -62 -296 -12 -13 -16 -13 -28 0 -13 13 -11 33 13 151 15 74 31
141 35 147 10 16 35 15 42 -2z m428 -2 c8 -20 8 -268 0 -288 -3 -9 -14 -16
-24 -16 -22 0 -30 19 -30 71 0 40 0 40 -37 37 -34 -3 -37 -6 -53 -53 -12 -37
-22 -51 -38 -53 -12 -2 -25 3 -28 11 -4 12 78 234 107 289 13 24 94 26 103 2z
m-219 -19 c0 -17 -6 -20 -38 -18 -42 3 -77 -11 -77 -30 0 -6 25 -34 55 -62 61
-57 69 -85 35 -127 -27 -35 -72 -52 -121 -45 -48 6 -64 19 -55 42 5 13 14 15
51 9 36 -5 50 -3 65 11 29 27 25 41 -22 76 -72 51 -87 101 -43 145 22 22 32
25 88 22 54 -3 62 -5 62 -23z"/>
<path d="M984 700 c-21 -54 -21 -55 -2 -58 28 -5 29 -1 26 59 l-3 54 -21 -55z"/>
</g>
</svg>
