<?xml version="1.0" encoding="UTF-8"?>
<!DOCTYPE svg PUBLIC "-//W3C//DTD SVG 1.1//EN" "http://www.w3.org/Graphics/SVG/1.1/DTD/svg11.dtd">
<svg xmlns="http://www.w3.org/2000/svg" version="1.1" width="128px" height="128px" style="shape-rendering:geometricPrecision; text-rendering:geometricPrecision; image-rendering:optimizeQuality; fill-rule:evenodd; clip-rule:evenodd" xmlns:xlink="http://www.w3.org/1999/xlink">
<g><path style="opacity:0.92" fill="#ffffff" d="M 127.5,69.5 C 127.5,75.8333 127.5,82.1667 127.5,88.5C 114.888,118.381 93.5545,126.714 63.5,113.5C 33.4455,126.714 12.1122,118.381 -0.5,88.5C -0.5,82.5 -0.5,76.5 -0.5,70.5C 3.5247,55.9642 12.5247,45.7975 26.5,40C 22.7167,35.2323 19.3834,30.2323 16.5,25C 18.9623,19.0767 21.9623,13.4101 25.5,8C 35.1667,7.33333 44.8333,7.33333 54.5,8C 57.4594,12.7512 60.2928,17.5845 63,22.5C 63.6667,24.1667 63.6667,25.8333 63,27.5C 59.4693,31.3972 56.3026,35.5639 53.5,40C 56.9875,41.2454 60.3208,42.7454 63.5,44.5C 85.5701,33.1531 104.737,36.8197 121,55.5C 123.489,60.1373 125.656,64.804 127.5,69.5 Z M 33.5,49.5 C 37.8461,49.3343 42.1794,49.501 46.5,50C 49.4081,50.6888 52.0748,51.8555 54.5,53.5C 42.5769,70.3191 42.5769,87.1525 54.5,104C 38.7869,111.768 25.6203,108.601 15,94.5C 6.25717,73.3237 12.4238,58.3237 33.5,49.5 Z M 80.5,49.5 C 98.89,47.9366 110.723,55.9366 116,73.5C 116.5,97 105,108.5 81.5,108C 78.1258,107.479 75.1258,106.146 72.5,104C 84.4231,87.1525 84.4231,70.3191 72.5,53.5C 75.1479,51.9618 77.8146,50.6285 80.5,49.5 Z M 62.5,61.5 C 64.4525,62.6258 65.9525,64.2925 67,66.5C 71.1116,77.1855 69.9449,87.1855 63.5,96.5C 55.9089,85.0622 55.5756,73.3955 62.5,61.5 Z"/></g>
</svg>
