<?xml version="1.0" standalone="no"?>
<!DOCTYPE svg PUBLIC "-//W3C//DTD SVG 20010904//EN"
 "http://www.w3.org/TR/2001/REC-SVG-20010904/DTD/svg10.dtd">
<svg version="1.0" xmlns="http://www.w3.org/2000/svg"
 width="128.000000pt" height="128.000000pt" viewBox="0 0 128.000000 128.000000"
 preserveAspectRatio="xMidYMid meet">

<g transform="translate(0.000000,128.000000) scale(0.100000,-0.100000)"
fill="#ffffff" stroke="none">
<path d="M285 1140 c-19 -21 -18 -22 88 -127 105 -106 106 -107 127 -88 11 10
20 25 20 34 0 21 -180 201 -201 201 -9 0 -24 -9 -34 -20z"/>
<path d="M625 1129 c-11 -17 3 -23 82 -36 200 -31 352 -184 386 -387 13 -78
30 -105 44 -70 11 30 -16 154 -49 223 -42 89 -141 187 -228 228 -96 45 -220
68 -235 42z"/>
<path d="M182 1036 c-85 -90 -87 -136 -10 -291 113 -227 346 -460 574 -574
151 -75 199 -73 292 14 l57 54 -107 108 -108 107 -33 -32 c-18 -18 -43 -32
-56 -32 -108 0 -401 293 -401 401 0 13 14 38 32 56 l32 33 -104 105 c-58 58
-107 105 -111 105 -3 0 -29 -24 -57 -54z"/>
<path d="M622 964 c2 -15 15 -20 53 -25 134 -16 241 -125 261 -262 7 -52 13
-60 34 -47 11 7 11 19 2 66 -32 158 -148 268 -295 282 -54 5 -59 3 -55 -14z"/>
<path d="M631 811 c-21 -13 -6 -27 43 -40 48 -12 92 -55 102 -99 10 -47 13
-52 29 -52 22 0 19 52 -5 100 -31 62 -131 115 -169 91z"/>
<path d="M925 500 c-19 -21 -18 -22 88 -127 105 -106 106 -107 127 -88 11 10
20 25 20 34 0 21 -180 201 -201 201 -9 0 -24 -9 -34 -20z"/>
</g>
</svg>
