<?xml version="1.0" encoding="UTF-8"?>
<!DOCTYPE svg PUBLIC "-//W3C//DTD SVG 1.1//EN" "http://www.w3.org/Graphics/SVG/1.1/DTD/svg11.dtd">
<svg xmlns="http://www.w3.org/2000/svg" version="1.1" width="300px" height="300px" style="shape-rendering:geometricPrecision; text-rendering:geometricPrecision; image-rendering:optimizeQuality; fill-rule:evenodd; clip-rule:evenodd" xmlns:xlink="http://www.w3.org/1999/xlink">
<g><path style="opacity:0.967" fill="#ffffff" d="M 255.5,142.5 C 255.5,144.833 255.5,147.167 255.5,149.5C 254.134,154.6 252.301,159.6 250,164.5C 240.667,173.833 231.333,183.167 222,192.5C 222.451,196.112 222.951,199.779 223.5,203.5C 217.824,203.334 212.157,203.501 206.5,204C 203.333,206.5 200.167,209 197,211.5C 190.45,207.806 183.95,203.973 177.5,200C 175.966,199.077 174.299,198.577 172.5,198.5C 160.487,200.936 148.487,203.436 136.5,206C 133.5,206.667 130.5,206.667 127.5,206C 112.735,195.867 98.2347,185.367 84,174.5C 80.9184,162.165 76.9184,150.165 72,138.5C 57.8706,117.073 43.3706,95.9062 28.5,75C 26.0437,74.0539 24.0437,74.5539 22.5,76.5C 32.431,100.46 42.2644,124.46 52,148.5C 52.7429,150.441 52.5762,152.274 51.5,154C 48.5347,156.33 45.368,156.83 42,155.5C 33.6667,141.5 25.3333,127.5 17,113.5C 11.2981,107.63 5.46474,101.964 -0.5,96.5C -0.5,96.1667 -0.5,95.8333 -0.5,95.5C 3.18174,95.6653 6.84841,95.4986 10.5,95C 11.0219,94.4387 11.3552,93.772 11.5,93C 7.76086,78.6337 3.76086,64.4671 -0.5,50.5C -0.5,48.5 -0.5,46.5 -0.5,44.5C 7.75476,43.3656 16.0881,43.199 24.5,44C 26.2464,44.4709 27.913,45.1376 29.5,46C 35.5,50.6667 41.5,55.3333 47.5,60C 53.0716,61.3507 58.7383,61.8507 64.5,61.5C 63.8757,57.9866 64.8757,55.1533 67.5,53C 74.8333,52.3333 82.1667,52.3333 89.5,53C 95.4039,59.4809 101.071,66.1475 106.5,73C 112.167,73.3333 117.833,73.6667 123.5,74C 134.089,85.5999 143.589,98.0999 152,111.5C 151.07,126.671 152.403,141.671 156,156.5C 160.325,170.665 169.825,178.332 184.5,179.5C 197.098,179.92 207.598,175.587 216,166.5C 218.613,157.937 222.78,150.271 228.5,143.5C 237.446,142.528 246.446,142.194 255.5,142.5 Z"/></g>
</svg>
