<?xml version="1.0" standalone="no"?>
<!DOCTYPE svg PUBLIC "-//W3C//DTD SVG 20010904//EN"
 "http://www.w3.org/TR/2001/REC-SVG-20010904/DTD/svg10.dtd">
<svg version="1.0" xmlns="http://www.w3.org/2000/svg"
 width="128.000000pt" height="128.000000pt" viewBox="0 0 128.000000 128.000000"
 preserveAspectRatio="xMidYMid meet">

<g transform="translate(0.000000,128.000000) scale(0.100000,-0.100000)"
fill="#ffffff" stroke="none">
<path d="M294 1272 c-23 -15 -34 -53 -34 -116 0 -99 26 -137 84 -122 32 8 46
46 46 122 0 87 -19 124 -65 124 -11 0 -25 -4 -31 -8z"/>
<path d="M924 1272 c-23 -15 -34 -53 -34 -116 0 -99 26 -137 84 -122 32 8 46
46 46 122 0 87 -19 124 -65 124 -11 0 -25 -4 -31 -8z"/>
<path d="M78 1129 c-59 -30 -78 -79 -78 -194 l0 -95 640 0 640 0 0 95 c0 76
-4 104 -20 135 -27 53 -80 80 -160 80 l-60 0 0 -45 c0 -59 -32 -95 -85 -95
-53 0 -85 36 -85 95 l0 45 -230 0 -230 0 0 -45 c0 -59 -32 -95 -85 -95 -53 0
-85 36 -85 95 l0 45 -62 0 c-43 -1 -75 -7 -100 -21z"/>
<path d="M0 465 c0 -393 1 -400 78 -443 l40 -22 521 0 c503 0 523 1 561 20 26
13 47 34 60 60 19 37 20 58 20 385 l0 345 -640 0 -640 0 0 -345z m437 124 c35
-13 43 -25 43 -71 l0 -38 -44 0 c-39 0 -45 3 -48 23 -2 14 -10 22 -23 22 -16
0 -21 -8 -23 -37 l-3 -38 48 0 c28 0 58 -7 71 -16 19 -13 22 -24 22 -88 0 -92
-8 -100 -104 -104 -95 -4 -120 9 -124 66 l-3 42 44 0 c37 0 46 -4 50 -21 8
-31 41 -21 45 15 4 36 -10 46 -68 46 -26 0 -51 5 -58 12 -17 17 -16 162 1 176
27 22 128 29 174 11z m313 -156 c24 -93 45 -174 48 -180 3 -9 -10 -13 -46 -13
-45 0 -51 3 -54 23 -3 19 -10 22 -50 25 -42 3 -47 1 -50 -20 -3 -20 -10 -23
-51 -26 -43 -3 -48 -1 -43 15 3 10 21 81 40 158 20 77 39 150 42 163 6 19 13
22 64 22 l57 0 43 -167z m280 132 c0 -32 -2 -35 -30 -35 l-30 0 0 -145 0 -145
-50 0 -50 0 0 145 0 145 -35 0 c-32 0 -35 3 -35 28 0 16 3 32 7 35 3 4 55 7
115 7 l108 0 0 -35z"/>
<path d="M636 433 c-4 -21 -9 -46 -12 -55 -4 -14 1 -18 22 -18 26 0 27 1 20
47 -8 62 -22 74 -30 26z"/>
</g>
</svg>
